TITLE ""
FILE "Step1_Track43.mp3" MP3
  TRACK 01 AUDIO
    TITLE "Step1_Track43_01"
    INDEX 01 00:00:00
  TRACK 02 AUDIO
    TITLE "Step1_Track43_02"
    INDEX 01 00:00:24
  TRACK 03 AUDIO
    TITLE "Step1_Track43_03"
    INDEX 01 00:02:01
  TRACK 04 AUDIO
    TITLE "Step1_Track43_04"
    INDEX 01 00:02:56
  TRACK 05 AUDIO
    TITLE "Step1_Track43_05"
    INDEX 01 00:03:48
  TRACK 06 AUDIO
    TITLE "Step1_Track43_06"
    INDEX 01 00:03:63
  TRACK 07 AUDIO
    TITLE "Step1_Track43_07"
    INDEX 01 00:05:23
  TRACK 08 AUDIO
    TITLE "Step1_Track43_08"
    INDEX 01 00:05:58
  TRACK 09 AUDIO
    TITLE "Step1_Track43_09"
    INDEX 01 00:06:56
  TRACK 10 AUDIO
    TITLE "Step1_Track43_10"
    INDEX 01 00:06:64
  TRACK 11 AUDIO
    TITLE "Step1_Track43_11"
    INDEX 01 00:09:23
  TRACK 12 AUDIO
    TITLE "Step1_Track43_12"
    INDEX 01 00:09:35
  TRACK 13 AUDIO
    TITLE "Step1_Track43_13"
    INDEX 01 00:10:38
  TRACK 14 AUDIO
    TITLE "Step1_Track43_14"
    INDEX 01 00:10:48
  TRACK 15 AUDIO
    TITLE "Step1_Track43_15"
    INDEX 01 00:13:13
  TRACK 16 AUDIO
    TITLE "Step1_Track43_16"
    INDEX 01 00:13:25
  TRACK 17 AUDIO
    TITLE "Step1_Track43_17"
    INDEX 01 00:14:30
  TRACK 18 AUDIO
    TITLE "Step1_Track43_18"
    INDEX 01 00:14:42
  TRACK 19 AUDIO
    TITLE "Step1_Track43_19"
    INDEX 01 00:16:05
  TRACK 20 AUDIO
    TITLE "Step1_Track43_20"
    INDEX 01 00:16:43
  TRACK 21 AUDIO
    TITLE "Step1_Track43_21"
    INDEX 01 00:17:46
  TRACK 22 AUDIO
    TITLE "Step1_Track43_22"
    INDEX 01 00:17:70
  TRACK 23 AUDIO
    TITLE "Step1_Track43_23"
    INDEX 01 00:19:39
  TRACK 24 AUDIO
    TITLE "Step1_Track43_24"
    INDEX 01 00:19:72
  TRACK 25 AUDIO
    TITLE "Step1_Track43_25"
    INDEX 01 00:21:05
  TRACK 26 AUDIO
    TITLE "Step1_Track43_26"
    INDEX 01 00:21:12
  TRACK 27 AUDIO
    TITLE "Step1_Track43_27"
    INDEX 01 00:24:25
  TRACK 28 AUDIO
    TITLE "Step1_Track43_28"
    INDEX 01 00:24:38
  TRACK 29 AUDIO
    TITLE "Step1_Track43_29"
    INDEX 01 00:25:46
  TRACK 30 AUDIO
    TITLE "Step1_Track43_30"
    INDEX 01 00:25:57
  TRACK 31 AUDIO
    TITLE "Step1_Track43_31"
    INDEX 01 00:27:70
  TRACK 32 AUDIO
    TITLE "Step1_Track43_32"
    INDEX 01 00:28:24
  TRACK 33 AUDIO
    TITLE "Step1_Track43_33"
    INDEX 01 00:29:04
  TRACK 34 AUDIO
    TITLE "Step1_Track43_34"
    INDEX 01 00:29:22
  TRACK 35 AUDIO
    TITLE "Step1_Track43_35"
    INDEX 01 00:31:42
  TRACK 36 AUDIO
    TITLE "Step1_Track43_36"
    INDEX 01 00:31:62
  TRACK 37 AUDIO
    TITLE "Step1_Track43_37"
    INDEX 01 00:32:63
  TRACK 38 AUDIO
    TITLE "Step1_Track43_38"
    INDEX 01 00:32:67
  TRACK 39 AUDIO
    TITLE "Step1_Track43_39"
    INDEX 01 00:35:48
  TRACK 40 AUDIO
    TITLE "Step1_Track43_40"
    INDEX 01 00:35:64
  TRACK 41 AUDIO
    TITLE "Step1_Track43_41"
    INDEX 01 00:36:59
  TRACK 42 AUDIO
    TITLE "Step1_Track43_42"
    INDEX 01 00:36:73
  TRACK 43 AUDIO
    TITLE "Step1_Track43_43"
    INDEX 01 00:38:70
